<?xml version="1.0" encoding="UTF-8"?>
<!DOCTYPE svg PUBLIC "-//W3C//DTD SVG 1.1//EN" "http://www.w3.org/Graphics/SVG/1.1/DTD/svg11.dtd">
<svg xmlns="http://www.w3.org/2000/svg" version="1.1" width="2064px" height="864px" style="shape-rendering:geometricPrecision; text-rendering:geometricPrecision; image-rendering:optimizeQuality; fill-rule:evenodd; clip-rule:evenodd" xmlns:xlink="http://www.w3.org/1999/xlink">
<g><path style="opacity:1" fill="#fefefe" d="M -0.5,-0.5 C 687.5,-0.5 1375.5,-0.5 2063.5,-0.5C 2063.5,287.5 2063.5,575.5 2063.5,863.5C 1375.5,863.5 687.5,863.5 -0.5,863.5C -0.5,575.5 -0.5,287.5 -0.5,-0.5 Z"/></g>
<g><path style="opacity:1" fill="#6f6f6f" d="M 713.5,149.5 C 715.337,149.639 715.67,150.306 714.5,151.5C 713.702,151.043 713.369,150.376 713.5,149.5 Z"/></g>
<g><path style="opacity:1" fill="#e7e8e8" d="M 620.5,377.5 C 621.222,377.918 621.722,378.584 622,379.5C 626.171,372.976 630.504,372.976 635,379.5C 635.822,376.883 636.322,374.216 636.5,371.5C 638.199,371.38 639.865,371.046 641.5,370.5C 645.643,374.028 649.977,374.361 654.5,371.5C 649.701,386.951 654.367,398.451 668.5,406C 682.33,409.563 692.997,405.396 700.5,393.5C 702.2,393.374 703.7,392.707 705,391.5C 706.763,391.975 708.43,392.642 710,393.5C 710.416,397.071 710.25,400.738 709.5,404.5C 708.051,401.629 706.385,398.795 704.5,396C 702.887,395.911 701.72,396.745 701,398.5C 700.333,399.167 700.333,399.833 701,400.5C 703.869,397.682 705.369,398.348 705.5,402.5C 703.891,402.094 702.557,402.094 701.5,402.5C 704.436,403.115 707.103,404.282 709.5,406C 708.62,407.356 708.286,408.856 708.5,410.5C 705.813,410.336 703.146,410.503 700.5,411C 703.261,412.806 705.594,415.139 707.5,418C 709.433,418.251 711.266,418.751 713,419.5C 713.167,419.167 713.333,418.833 713.5,418.5C 710.333,417.999 707.999,416.333 706.5,413.5C 707.325,412.614 708.325,412.281 709.5,412.5C 710.313,408.191 711.147,403.857 712,399.5C 715.567,403.799 719.733,404.132 724.5,400.5C 722.328,397.828 719.994,395.328 717.5,393C 718.216,388.518 719.716,384.351 722,380.5C 722.762,383.361 723.262,386.361 723.5,389.5C 725.426,390.061 727.426,390.227 729.5,390C 728.014,392.289 727.014,394.789 726.5,397.5C 726.728,399.397 727.728,400.73 729.5,401.5C 724.585,408.446 726.418,412.446 735,413.5C 735.688,412.668 735.521,412.002 734.5,411.5C 729.342,410.722 727.675,408.055 729.5,403.5C 730.5,403.5 731.5,403.5 732.5,403.5C 732.5,402.167 732.5,400.833 732.5,399.5C 730.516,399.617 728.85,398.95 727.5,397.5C 728.306,394.554 729.639,391.888 731.5,389.5C 729.363,388.132 727.03,387.132 724.5,386.5C 724.833,385.833 725.167,385.167 725.5,384.5C 724.05,383.15 723.383,381.484 723.5,379.5C 722.5,379.5 721.5,379.5 720.5,379.5C 720.881,381.942 720.214,382.609 718.5,381.5C 717.017,383.746 715.017,384.579 712.5,384C 713.672,382.003 715.005,380.17 716.5,378.5C 716.167,377.833 715.833,377.167 715.5,376.5C 712.543,378.732 711.377,381.732 712,385.5C 713.425,386.212 714.925,386.379 716.5,386C 716.786,388.744 716.453,391.577 715.5,394.5C 712.115,392.752 708.615,391.085 705,389.5C 703.739,389.759 702.739,390.426 702,391.5C 701.601,391.272 701.435,390.938 701.5,390.5C 704.178,368.01 694.178,357.177 671.5,358C 665.379,360.047 660.379,363.547 656.5,368.5C 653.796,369.632 651.129,370.965 648.5,372.5C 646.893,372.363 645.559,371.696 644.5,370.5C 645.711,369.28 645.711,368.113 644.5,367C 645.43,363.292 647.764,361.126 651.5,360.5C 652.784,357.692 652.117,355.359 649.5,353.5C 648.155,354.347 647.155,355.513 646.5,357C 645.833,357.667 645.167,357.667 644.5,357C 645.081,356.107 645.415,355.107 645.5,354C 644.622,352.2 643.955,350.367 643.5,348.5C 641.833,348.5 640.167,348.5 638.5,348.5C 637.75,344.259 639.083,340.926 642.5,338.5C 643.33,334.791 644.497,331.458 646,328.5C 644.846,329.743 643.512,330.743 642,331.5C 641.667,333.5 641.333,335.5 641,337.5C 638.957,338.579 637.624,340.246 637,342.5C 636.528,355.393 633.028,356.56 626.5,346C 623.715,345.342 621.049,344.509 618.5,343.5C 616.475,338.407 614.975,333.073 614,327.5C 612.477,325.38 610.644,325.047 608.5,326.5C 606.518,323.19 604.185,320.19 601.5,317.5C 601.167,317.833 600.833,318.167 600.5,318.5C 603.373,321.072 605.373,324.239 606.5,328C 608.035,328.496 609.535,328.33 611,327.5C 611.945,327.905 612.612,328.572 613,329.5C 613.918,335.5 616.084,341 619.5,346C 619.138,347.225 618.638,348.391 618,349.5C 616.989,348.663 615.822,348.33 614.5,348.5C 608.737,343.649 603.903,337.982 600,331.5C 595.978,327.977 591.811,324.643 587.5,321.5C 583.841,313.173 577.508,308.507 568.5,307.5C 568.519,302.693 569.019,298.027 570,293.5C 565.16,293.486 562.327,291.153 561.5,286.5C 555.317,284.964 552.65,280.964 553.5,274.5C 551.073,274.477 548.74,273.977 546.5,273C 542.257,268.713 538.257,264.213 534.5,259.5C 532.774,261.03 530.774,262.03 528.5,262.5C 528.167,261.833 527.833,261.167 527.5,260.5C 528.695,257.157 529.529,253.823 530,250.5C 526.755,245.415 524.088,240.082 522,234.5C 521.818,231.774 521.318,229.107 520.5,226.5C 517.483,225.995 515.149,224.495 513.5,222C 511.965,221.504 510.465,221.67 509,222.5C 506.409,221.566 504.076,220.233 502,218.5C 501.228,218.645 500.561,218.978 500,219.5C 500.405,226.816 501.072,234.149 502,241.5C 505.342,245.174 509.008,248.508 513,251.5C 514.027,255.69 516.527,258.357 520.5,259.5C 520.343,260.873 520.51,262.207 521,263.5C 524.456,266.692 526.456,270.692 527,275.5C 528.333,276.167 529.667,276.833 531,277.5C 530.855,280.923 532.355,282.923 535.5,283.5C 536.367,286.227 538.201,288.227 541,289.5C 542.003,293.392 543.836,296.725 546.5,299.5C 545.48,301.432 545.313,303.432 546,305.5C 547.185,307.377 548.185,309.377 549,311.5C 550.333,312.167 551.667,312.833 553,313.5C 551.964,316.679 551.631,320.012 552,323.5C 553.183,324.731 554.349,324.731 555.5,323.5C 554.41,322.391 554.41,321.391 555.5,320.5C 556.228,322.193 557.228,323.693 558.5,325C 559.742,325.311 560.742,324.811 561.5,323.5C 562.935,328.49 564.935,333.157 567.5,337.5C 566.644,341.362 564.311,344.029 560.5,345.5C 558.267,341.679 555.934,337.845 553.5,334C 549.203,331.696 545.536,328.696 542.5,325C 538.049,324.384 534.216,322.551 531,319.5C 530.362,318.391 529.862,317.225 529.5,316C 533.545,309.647 533.211,303.48 528.5,297.5C 524.341,294.253 520.008,291.253 515.5,288.5C 514.833,288.833 514.167,289.167 513.5,289.5C 510.369,286.503 506.702,284.337 502.5,283C 500.028,279.36 497.028,276.194 493.5,273.5C 495.635,272.355 497.801,272.355 500,273.5C 502.893,272.774 505.059,271.107 506.5,268.5C 505.448,266.89 505.448,265.223 506.5,263.5C 503.87,259.868 500.87,256.535 497.5,253.5C 493.274,251.448 489.441,248.781 486,245.5C 485.03,242.556 484.196,239.556 483.5,236.5C 482.252,233.494 480.419,230.827 478,228.5C 476.888,224.454 475.388,220.621 473.5,217C 473.833,216.667 474.167,216.333 474.5,216C 472.455,214.074 470.622,211.908 469,209.5C 468.51,208.207 468.343,206.873 468.5,205.5C 479.17,204.872 489.837,204.206 500.5,203.5C 500.5,204.833 500.5,206.167 500.5,207.5C 517.48,213.216 534.48,219.049 551.5,225C 563.187,225.278 574.854,225.778 586.5,226.5C 586.5,224.5 586.5,222.5 586.5,220.5C 595.173,220.334 603.84,220.5 612.5,221C 613.5,222.667 614.5,224.333 615.5,226C 620.976,230.135 626.476,234.302 632,238.5C 633.562,242.883 635.229,247.216 637,251.5C 641.06,255.071 645.56,257.904 650.5,260C 655.381,260.134 658.214,257.634 659,252.5C 661.28,251.167 663.614,249.834 666,248.5C 680.778,249.932 690.111,257.932 694,272.5C 696.658,276.157 699.658,279.491 703,282.5C 703.675,288.163 705.342,293.496 708,298.5C 713.779,301.982 719.945,304.149 726.5,305C 728.33,307.761 730.663,308.261 733.5,306.5C 730.716,313.066 728.216,319.733 726,326.5C 724.891,334.457 724.224,342.457 724,350.5C 722.007,357.118 723.674,362.784 729,367.5C 728.346,372.258 729.013,376.925 731,381.5C 736.036,385.849 739.37,391.182 741,397.5C 743.377,401.088 745.877,404.588 748.5,408C 751.167,408.333 753.833,408.667 756.5,409C 757.716,410.74 759.382,411.74 761.5,412C 762.5,413.667 763.5,415.333 764.5,417C 771.935,414.808 779.602,413.475 787.5,413C 791.615,410.012 796.115,409.179 801,410.5C 809.679,408.149 815.346,402.816 818,394.5C 818.843,389.079 820.009,383.746 821.5,378.5C 823.336,377.081 825.336,375.914 827.5,375C 836.022,374.184 844.355,372.684 852.5,370.5C 857.47,371.229 862.47,371.729 867.5,372C 870.96,376.041 871.126,380.208 868,384.5C 863.179,387.625 860.512,391.958 860,397.5C 859.167,398.333 858.333,399.167 857.5,400C 858.624,400.249 859.624,400.749 860.5,401.5C 858.434,406.657 856.934,411.99 856,417.5C 855.167,418.5 854.333,419.5 853.5,420.5C 852.684,418.713 851.684,417.046 850.5,415.5C 851.326,414.549 851.492,413.549 851,412.5C 846.956,416.213 843.123,420.213 839.5,424.5C 830.621,424.407 821.621,424.407 812.5,424.5C 812.5,427.167 812.5,429.833 812.5,432.5C 811.022,432.238 809.689,432.571 808.5,433.5C 812.782,436.075 816.282,439.408 819,443.5C 819.18,445.488 819.014,447.488 818.5,449.5C 812.463,449.171 806.463,449.504 800.5,450.5C 799,452.833 797.5,455.167 796,457.5C 796.837,473.026 793.337,474.193 785.5,461C 780.05,455.541 774.05,450.874 767.5,447C 763.572,445.675 759.572,445.342 755.5,446C 750.03,448.62 744.364,450.787 738.5,452.5C 732.574,450.703 726.574,449.203 720.5,448C 716.23,445.189 711.897,442.523 707.5,440C 703.766,438.175 699.766,437.175 695.5,437C 689.026,433.557 682.359,430.39 675.5,427.5C 671.324,425.156 667.99,421.989 665.5,418C 656.017,418.346 647.851,415.179 641,408.5C 641.698,406.236 641.198,404.403 639.5,403C 636.88,402.019 634.38,400.853 632,399.5C 630.077,400.802 628.243,400.635 626.5,399C 621.211,394.379 617.545,388.712 615.5,382C 617.09,380.368 618.756,378.868 620.5,377.5 Z"/></g>
<g><path style="opacity:1" fill="#d7d7d7" d="M 656.5,368.5 C 656.068,369.71 655.401,370.71 654.5,371.5C 649.977,374.361 645.643,374.028 641.5,370.5C 639.865,371.046 638.199,371.38 636.5,371.5C 636.322,374.216 635.822,376.883 635,379.5C 630.504,372.976 626.171,372.976 622,379.5C 621.722,378.584 621.222,377.918 620.5,377.5C 619.602,376.842 618.602,376.176 617.5,375.5C 619.721,373.627 621.054,371.293 621.5,368.5C 619.836,365.983 618.336,363.317 617,360.5C 616.925,356.248 616.092,352.248 614.5,348.5C 615.822,348.33 616.989,348.663 618,349.5C 618.638,348.391 619.138,347.225 619.5,346C 616.084,341 613.918,335.5 613,329.5C 612.612,328.572 611.945,327.905 611,327.5C 609.535,328.33 608.035,328.496 606.5,328C 605.373,324.239 603.373,321.072 600.5,318.5C 600.833,318.167 601.167,317.833 601.5,317.5C 604.185,320.19 606.518,323.19 608.5,326.5C 610.644,325.047 612.477,325.38 614,327.5C 614.975,333.073 616.475,338.407 618.5,343.5C 621.049,344.509 623.715,345.342 626.5,346C 633.028,356.56 636.528,355.393 637,342.5C 637.624,340.246 638.957,338.579 641,337.5C 641.333,335.5 641.667,333.5 642,331.5C 643.512,330.743 644.846,329.743 646,328.5C 644.497,331.458 643.33,334.791 642.5,338.5C 639.083,340.926 637.75,344.259 638.5,348.5C 640.167,348.5 641.833,348.5 643.5,348.5C 643.955,350.367 644.622,352.2 645.5,354C 645.415,355.107 645.081,356.107 644.5,357C 645.167,357.667 645.833,357.667 646.5,357C 647.155,355.513 648.155,354.347 649.5,353.5C 652.117,355.359 652.784,357.692 651.5,360.5C 647.764,361.126 645.43,363.292 644.5,367C 645.711,368.113 645.711,369.28 644.5,370.5C 645.559,371.696 646.893,372.363 648.5,372.5C 651.129,370.965 653.796,369.632 656.5,368.5 Z"/></g>
<g><path style="opacity:1" fill="#e9eaea" d="M 620.5,347.5 C 622.199,347.34 623.866,347.506 625.5,348C 625.36,349.069 625.36,350.236 625.5,351.5C 628.54,352.908 631.54,354.241 634.5,355.5C 634.201,357.604 634.534,359.604 635.5,361.5C 638.344,363.097 640.344,365.43 641.5,368.5C 639.696,369.768 637.696,370.435 635.5,370.5C 635.5,371.833 635.5,373.167 635.5,374.5C 632.91,374.604 630.577,373.937 628.5,372.5C 625.504,372.647 623.338,373.981 622,376.5C 621.667,376.167 621.333,375.833 621,375.5C 621.938,372.529 622.771,369.362 623.5,366C 621.284,364.281 619.617,362.114 618.5,359.5C 618.889,355.633 619.556,351.633 620.5,347.5 Z"/></g>
<g><path style="opacity:1" fill="#1a3ea3" d="M 701.5,390.5 C 700.596,391.209 700.263,392.209 700.5,393.5C 692.997,405.396 682.33,409.563 668.5,406C 654.367,398.451 649.701,386.951 654.5,371.5C 655.401,370.71 656.068,369.71 656.5,368.5C 660.379,363.547 665.379,360.047 671.5,358C 694.178,357.177 704.178,368.01 701.5,390.5 Z"/></g>
<g><path style="opacity:1" fill="#eceef7" d="M 664.5,373.5 C 663.833,375.833 663.167,378.167 662.5,380.5C 662.5,377.833 662.5,375.167 662.5,372.5C 666.767,372.797 670.934,372.464 675,371.5C 675.167,371.833 675.333,372.167 675.5,372.5C 671.893,373.489 668.226,373.823 664.5,373.5 Z"/></g>
<g><path style="opacity:1" fill="#bcc5e4" d="M 662.5,380.5 C 663.167,378.167 663.833,375.833 664.5,373.5C 664.5,375.833 664.5,378.167 664.5,380.5C 667.187,380.664 669.854,380.497 672.5,380C 675.167,377.333 677.833,374.667 680.5,372C 684.167,371.333 687.833,371.333 691.5,372C 692.617,375.073 692.784,378.24 692,381.5C 689.281,382.444 686.448,382.777 683.5,382.5C 683.666,386.514 683.499,390.514 683,394.5C 672.476,398.475 668.976,395.142 672.5,384.5C 673.487,387.768 673.82,391.102 673.5,394.5C 676.167,394.5 678.833,394.5 681.5,394.5C 681.228,390.098 681.561,385.765 682.5,381.5C 685.086,380.52 687.753,380.187 690.5,380.5C 690.5,378.167 690.5,375.833 690.5,373.5C 687.482,373.335 684.482,373.502 681.5,374C 678.833,376.667 676.167,379.333 673.5,382C 670.167,382.667 666.833,382.667 663.5,382C 662.944,381.617 662.611,381.117 662.5,380.5 Z"/></g>
<g><path style="opacity:1" fill="#d2d3d3" d="M 700.5,393.5 C 700.263,392.209 700.596,391.209 701.5,390.5C 701.435,390.938 701.601,391.272 702,391.5C 702.739,390.426 703.739,389.759 705,389.5C 708.615,391.085 712.115,392.752 715.5,394.5C 716.453,391.577 716.786,388.744 716.5,386C 714.925,386.379 713.425,386.212 712,385.5C 711.377,381.732 712.543,378.732 715.5,376.5C 715.833,377.167 716.167,377.833 716.5,378.5C 715.005,380.17 713.672,382.003 712.5,384C 715.017,384.579 717.017,383.746 718.5,381.5C 720.214,382.609 720.881,381.942 720.5,379.5C 721.5,379.5 722.5,379.5 723.5,379.5C 723.383,381.484 724.05,383.15 725.5,384.5C 725.167,385.167 724.833,385.833 724.5,386.5C 727.03,387.132 729.363,388.132 731.5,389.5C 729.639,391.888 728.306,394.554 727.5,397.5C 728.85,398.95 730.516,399.617 732.5,399.5C 732.5,400.833 732.5,402.167 732.5,403.5C 731.5,403.5 730.5,403.5 729.5,403.5C 727.675,408.055 729.342,410.722 734.5,411.5C 735.521,412.002 735.688,412.668 735,413.5C 726.418,412.446 724.585,408.446 729.5,401.5C 727.728,400.73 726.728,399.397 726.5,397.5C 727.014,394.789 728.014,392.289 729.5,390C 727.426,390.227 725.426,390.061 723.5,389.5C 723.262,386.361 722.762,383.361 722,380.5C 719.716,384.351 718.216,388.518 717.5,393C 719.994,395.328 722.328,397.828 724.5,400.5C 719.733,404.132 715.567,403.799 712,399.5C 711.147,403.857 710.313,408.191 709.5,412.5C 708.325,412.281 707.325,412.614 706.5,413.5C 707.999,416.333 710.333,417.999 713.5,418.5C 713.333,418.833 713.167,419.167 713,419.5C 711.266,418.751 709.433,418.251 707.5,418C 705.594,415.139 703.261,412.806 700.5,411C 703.146,410.503 705.813,410.336 708.5,410.5C 708.286,408.856 708.62,407.356 709.5,406C 707.103,404.282 704.436,403.115 701.5,402.5C 702.557,402.094 703.891,402.094 705.5,402.5C 705.369,398.348 703.869,397.682 701,400.5C 700.333,399.833 700.333,399.167 701,398.5C 701.72,396.745 702.887,395.911 704.5,396C 706.385,398.795 708.051,401.629 709.5,404.5C 710.25,400.738 710.416,397.071 710,393.5C 708.43,392.642 706.763,391.975 705,391.5C 703.7,392.707 702.2,393.374 700.5,393.5 Z"/></g>
</svg>
